<?xml version='1.0' encoding='utf-8'?>
<score-partwise version="3.1">
  <work><work-title>323. Wie schön leuchtet der Morgenstern</work-title></work><movement-title>323. Wie schön leuchtet der Morgenstern</movement-title>
  <identification>
    <creator type="composer" />
    <encoding>
      <encoding-date>2025-11-24</encoding-date>
      <software>music21 v.8.3.0</software>
      <software>MuseScore 2.1.0</software>
      <supports attribute="new-system" element="print" type="yes" value="yes" />
      <supports attribute="new-page" element="print" type="yes" value="yes" />
    </encoding>
  </identification>
  <defaults>
    <scaling>
      <millimeters>6.4</millimeters>
      <tenths>40</tenths>
    </scaling>
    <page-layout>
      <page-height>1856.25</page-height>
      <page-width>1312.5</page-width>
      <page-margins>
        <left-margin>31.25</left-margin>
        <right-margin>31.25</right-margin>
        <top-margin>62.5</top-margin>
        <bottom-margin>125</bottom-margin>
      </page-margins>
    </page-layout>
    <word-font font-family="Times New Roman" font-size="8" />
    <lyric-font font-family="Times New Roman" font-size="12" />
  </defaults>
  <credit page="1">
    <credit-words default-x="656" default-y="1793" font-family="Helvetica" font-size="12" justify="center" valign="top" />
  </credit>
  <credit page="1">
    <credit-words default-x="1250" default-y="1689" font-family="Helvetica" font-size="8" justify="right" valign="bottom" xml:space="preserve" />
  </credit>
  <part-list>
    <part-group number="1" type="start">
      <group-symbol>bracket</group-symbol>
      <group-barline>yes</group-barline>
    </part-group>
    <score-part id="P5">
      <part-name>Bass</part-name>
      <part-abbreviation>B</part-abbreviation>
      <score-instrument id="I52374f418ac6e17ff497c8cd6043c093">
        <instrument-name>Instrument 4</instrument-name>
      </score-instrument>
    </score-part>
    <part-group number="1" type="stop" />
  </part-list>
  
  <part id="P5">
    
    <measure number="0" width="160.42">
      <print>
        <staff-layout number="1">
          <staff-distance>130</staff-distance>
        </staff-layout>
      </print>
      <attributes>
        <divisions>10080</divisions>
        <key>
          <fifths>-1</fifths>
          <mode>major</mode>
        </key>
        <time symbol="common">
          <beats>4</beats>
          <beat-type>4</beat-type>
        </time>
        <clef>
          <sign>F</sign>
          <line>4</line>
        </clef>
        <staff-details print-object="yes" />
      </attributes>
      <note default-x="100.77" default-y="-690">
        <pitch>
          <step>F</step>
          <octave>3</octave>
        </pitch>
        <duration>10080</duration>
        <type>quarter</type>
        <stem>down</stem>
      </note>
    </measure>
    
    <measure number="1" width="357">
      <note default-x="33.68" default-y="-695">
        <pitch>
          <step>E</step>
          <octave>3</octave>
        </pitch>
        <duration>10080</duration>
        <type>quarter</type>
        <stem>down</stem>
      </note>
      <note default-x="110.53" default-y="-690">
        <pitch>
          <step>F</step>
          <octave>3</octave>
        </pitch>
        <duration>5040</duration>
        <type>eighth</type>
        <stem>down</stem>
        <beam number="1">begin</beam>
      </note>
      <note default-x="163.29" default-y="-695">
        <pitch>
          <step>E</step>
          <octave>3</octave>
        </pitch>
        <duration>5040</duration>
        <type>eighth</type>
        <stem>down</stem>
        <beam number="1">end</beam>
      </note>
      <note default-x="201.71" default-y="-700">
        <pitch>
          <step>D</step>
          <octave>3</octave>
        </pitch>
        <duration>10080</duration>
        <type>quarter</type>
        <stem>down</stem>
      </note>
      <note default-x="278.56" default-y="-715">
        <pitch>
          <step>A</step>
          <octave>2</octave>
        </pitch>
        <duration>10080</duration>
        <type>quarter</type>
        <stem>up</stem>
      </note>
    </measure>
    
    <measure number="2" width="339.16">
      <note default-x="26.28" default-y="-710">
        <pitch>
          <step>B</step>
          <alter>-1</alter>
          <octave>2</octave>
        </pitch>
        <duration>5040</duration>
        <type>eighth</type>
        <stem>up</stem>
        <beam number="1">begin</beam>
      </note>
      <note default-x="69.55" default-y="-705">
        <pitch>
          <step>C</step>
          <octave>3</octave>
        </pitch>
        <duration>5040</duration>
        <type>eighth</type>
        <stem>up</stem>
        <beam number="1">continue</beam>
      </note>
      <note default-x="123.64" default-y="-700">
        <pitch>
          <step>D</step>
          <octave>3</octave>
        </pitch>
        <duration>5040</duration>
        <type>eighth</type>
        <stem>up</stem>
        <beam number="1">continue</beam>
      </note>
      <note default-x="166.92" default-y="-695">
        <pitch>
          <step>E</step>
          <octave>3</octave>
        </pitch>
        <duration>5040</duration>
        <type>eighth</type>
        <stem>up</stem>
        <beam number="1">end</beam>
      </note>
      <note default-x="212.06" default-y="-690">
        <pitch>
          <step>F</step>
          <octave>3</octave>
        </pitch>
        <duration>10080</duration>
        <type>quarter</type>
        <stem>down</stem>
        <notations>
          <fermata type="upright" />
        </notations>
      </note>
      <note default-x="278.05" default-y="-695">
        <pitch>
          <step>E</step>
          <octave>3</octave>
        </pitch>
        <duration>10080</duration>
        <type>quarter</type>
        <stem>down</stem>
      </note>
    </measure>
    
    <measure number="3" width="318.18">
      <note default-x="32.77" default-y="-690">
        <pitch>
          <step>F</step>
          <octave>3</octave>
        </pitch>
        <duration>10080</duration>
        <type>quarter</type>
        <stem>down</stem>
      </note>
      <note default-x="95.84" default-y="-685">
        <pitch>
          <step>G</step>
          <octave>3</octave>
        </pitch>
        <duration>10080</duration>
        <type>quarter</type>
        <stem>down</stem>
      </note>
      <note default-x="158.91" default-y="-680">
        <pitch>
          <step>A</step>
          <octave>3</octave>
        </pitch>
        <duration>5040</duration>
        <type>eighth</type>
        <stem>down</stem>
        <beam number="1">begin</beam>
      </note>
      <note default-x="198.33" default-y="-675">
        <pitch>
          <step>B</step>
          <alter>0</alter>
          <octave>3</octave>
        </pitch>
        <duration>5040</duration>
        <type>eighth</type>
        <accidental>natural</accidental>
        <stem>down</stem>
        <beam number="1">continue</beam>
      </note>
      <note default-x="237.74" default-y="-670">
        <pitch>
          <step>C</step>
          <octave>4</octave>
        </pitch>
        <duration>5040</duration>
        <type>eighth</type>
        <stem>down</stem>
        <beam number="1">continue</beam>
      </note>
      <note default-x="277.16" default-y="-695">
        <pitch>
          <step>E</step>
          <octave>3</octave>
        </pitch>
        <duration>5040</duration>
        <type>eighth</type>
        <stem>down</stem>
        <beam number="1">end</beam>
      </note>
    </measure>
    
    <measure number="4" width="312.72">
      <print new-page="yes">
        <staff-layout number="1">
          <staff-distance>130</staff-distance>
        </staff-layout>
      </print>
      <attributes>
        <staff-details print-object="yes" />
      </attributes>
      <note default-x="82.32" default-y="-690">
        <pitch>
          <step>F</step>
          <octave>3</octave>
        </pitch>
        <duration>5040</duration>
        <type>eighth</type>
        <stem>down</stem>
        <beam number="1">begin</beam>
      </note>
      <note default-x="106.51" default-y="-700">
        <pitch>
          <step>D</step>
          <octave>3</octave>
        </pitch>
        <duration>5040</duration>
        <type>eighth</type>
        <stem>down</stem>
        <beam number="1">end</beam>
      </note>
      <note default-x="137.76" default-y="-685">
        <pitch>
          <step>G</step>
          <octave>3</octave>
        </pitch>
        <duration>10080</duration>
        <type>quarter</type>
        <stem>down</stem>
      </note>
      <note default-x="199" default-y="-705">
        <pitch>
          <step>C</step>
          <octave>3</octave>
        </pitch>
        <duration>10080</duration>
        <type>quarter</type>
        <stem>up</stem>
        <notations>
          <fermata type="upright" />
        </notations>
      </note>
      <note default-x="262.74" default-y="-690">
        <pitch>
          <step>F</step>
          <octave>3</octave>
        </pitch>
        <duration>10080</duration>
        <type>quarter</type>
        <stem>down</stem>
      </note>
    </measure>
    
    <measure number="5" width="233.32">
      <note default-x="22.23" default-y="-710">
        <pitch>
          <step>B</step>
          <alter>-1</alter>
          <octave>2</octave>
        </pitch>
        <duration>10080</duration>
        <type>quarter</type>
        <stem>up</stem>
      </note>
      <note default-x="74.6" default-y="-705">
        <pitch>
          <step>C</step>
          <octave>3</octave>
        </pitch>
        <duration>10080</duration>
        <type>quarter</type>
        <stem>up</stem>
      </note>
      <note default-x="133.69" default-y="-700">
        <pitch>
          <step>D</step>
          <octave>3</octave>
        </pitch>
        <duration>5040</duration>
        <type>eighth</type>
        <stem>down</stem>
        <beam number="1">begin</beam>
      </note>
      <note default-x="158.2" default-y="-695">
        <pitch>
          <step>E</step>
          <octave>3</octave>
        </pitch>
        <duration>5040</duration>
        <type>eighth</type>
        <stem>down</stem>
        <beam number="1">continue</beam>
      </note>
      <note default-x="182.71" default-y="-690">
        <pitch>
          <step>F</step>
          <octave>3</octave>
        </pitch>
        <duration>5040</duration>
        <type>eighth</type>
        <stem>down</stem>
        <beam number="1">continue</beam>
      </note>
      <note default-x="207.21" default-y="-710">
        <pitch>
          <step>B</step>
          <alter>-1</alter>
          <octave>2</octave>
        </pitch>
        <duration>5040</duration>
        <type>eighth</type>
        <stem>down</stem>
        <beam number="1">end</beam>
      </note>
    </measure>
    
    <measure number="6" width="167.9">
      <note default-x="19.84" default-y="-705">
        <pitch>
          <step>C</step>
          <octave>3</octave>
        </pitch>
        <duration>20160</duration>
        <type>half</type>
        <stem>up</stem>
      </note>
      <note default-x="110.62" default-y="-725">
        <pitch>
          <step>F</step>
          <octave>2</octave>
        </pitch>
        <duration>10080</duration>
        <type>quarter</type>
        <stem>up</stem>
        <notations>
          <fermata type="upright" />
        </notations>
      </note>
      <barline location="right">
        <repeat direction="backward" />
      </barline>
    </measure>
    
    <measure number="6a" width="50.91">
      <note>
        <rest />
        <duration>10080</duration>
        <type>quarter</type>
      </note>
    </measure>
    
    <measure number="7" width="183.91">
      <note default-x="27.26" default-y="-695">
        <pitch>
          <step>E</step>
          <octave>3</octave>
        </pitch>
        <duration>20160</duration>
        <type>half</type>
        <stem>down</stem>
      </note>
      <note default-x="99.66" default-y="-690">
        <pitch>
          <step>F</step>
          <octave>3</octave>
        </pitch>
        <duration>20160</duration>
        <type>half</type>
        <stem>down</stem>
      </note>
    </measure>
    
    <measure number="8" width="263.21">
      <note default-x="36.68" default-y="-705">
        <pitch>
          <step>C</step>
          <octave>3</octave>
        </pitch>
        <duration>20160</duration>
        <type>half</type>
        <stem>up</stem>
      </note>
      <note default-x="158.59" default-y="-725">
        <pitch>
          <step>F</step>
          <octave>2</octave>
        </pitch>
        <duration>20160</duration>
        <type>half</type>
        <stem>up</stem>
        <notations>
          <fermata type="upright" />
        </notations>
      </note>
    </measure>
    
    <measure number="9" width="260.34">
      <print new-page="yes">
        <staff-layout number="1">
          <staff-distance>130</staff-distance>
        </staff-layout>
      </print>
      <attributes>
        <staff-details print-object="yes" />
      </attributes>
      <note default-x="87.04" default-y="-725">
        <pitch>
          <step>F</step>
          <octave>2</octave>
        </pitch>
        <duration>5040</duration>
        <type>eighth</type>
        <stem>up</stem>
        <beam number="1">begin</beam>
      </note>
      <note default-x="103.1" default-y="-720">
        <pitch>
          <step>G</step>
          <octave>2</octave>
        </pitch>
        <duration>5040</duration>
        <type>eighth</type>
        <stem>up</stem>
        <beam number="1">continue</beam>
      </note>
      <note default-x="136.4" default-y="-715">
        <pitch>
          <step>A</step>
          <octave>2</octave>
        </pitch>
        <duration>5040</duration>
        <type>eighth</type>
        <stem>up</stem>
        <beam number="1">continue</beam>
      </note>
      <note default-x="152.46" default-y="-710">
        <pitch>
          <step>B</step>
          <alter>-1</alter>
          <octave>2</octave>
        </pitch>
        <duration>5040</duration>
        <type>eighth</type>
        <stem>up</stem>
        <beam number="1">end</beam>
      </note>
      <note default-x="176.98" default-y="-705">
        <pitch>
          <step>C</step>
          <octave>3</octave>
        </pitch>
        <duration>5040</duration>
        <type>eighth</type>
        <stem>up</stem>
        <beam number="1">begin</beam>
      </note>
      <note default-x="193.05" default-y="-700">
        <pitch>
          <step>D</step>
          <octave>3</octave>
        </pitch>
        <duration>5040</duration>
        <type>eighth</type>
        <stem>up</stem>
        <beam number="1">continue</beam>
      </note>
      <note default-x="218.64" default-y="-695">
        <pitch>
          <step>E</step>
          <octave>3</octave>
        </pitch>
        <duration>5040</duration>
        <type>eighth</type>
        <stem>up</stem>
        <beam number="1">continue</beam>
      </note>
      <note default-x="234.7" default-y="-705">
        <pitch>
          <step>C</step>
          <octave>3</octave>
        </pitch>
        <duration>5040</duration>
        <type>eighth</type>
        <stem>up</stem>
        <beam number="1">end</beam>
      </note>
    </measure>
    
    <measure number="10" width="222.36">
      <note default-x="30.98" default-y="-690">
        <pitch>
          <step>F</step>
          <octave>3</octave>
        </pitch>
        <duration>5040</duration>
        <type>eighth</type>
        <stem>down</stem>
        <beam number="1">begin</beam>
      </note>
      <note default-x="47.71" default-y="-685">
        <pitch>
          <step>G</step>
          <octave>3</octave>
        </pitch>
        <duration>5040</duration>
        <type>eighth</type>
        <stem>down</stem>
        <beam number="1">continue</beam>
      </note>
      <note default-x="79.04" default-y="-680">
        <pitch>
          <step>A</step>
          <octave>3</octave>
        </pitch>
        <duration>5040</duration>
        <type>eighth</type>
        <stem>down</stem>
        <beam number="1">continue</beam>
      </note>
      <note default-x="110.37" default-y="-675">
        <pitch>
          <step>B</step>
          <alter>-1</alter>
          <octave>3</octave>
        </pitch>
        <duration>5040</duration>
        <type>eighth</type>
        <stem>down</stem>
        <beam number="1">end</beam>
      </note>
      <note default-x="141.7" default-y="-670">
        <pitch>
          <step>C</step>
          <octave>4</octave>
        </pitch>
        <duration>5040</duration>
        <type>eighth</type>
        <stem>down</stem>
        <beam number="1">begin</beam>
      </note>
      <note default-x="158.43" default-y="-675">
        <pitch>
          <step>B</step>
          <alter>-1</alter>
          <octave>3</octave>
        </pitch>
        <duration>5040</duration>
        <type>eighth</type>
        <stem>down</stem>
        <beam number="1">continue</beam>
      </note>
      <note default-x="179.99" default-y="-680">
        <pitch>
          <step>A</step>
          <octave>3</octave>
        </pitch>
        <duration>5040</duration>
        <type>eighth</type>
        <stem>down</stem>
        <beam number="1">continue</beam>
      </note>
      <note default-x="196.72" default-y="-685">
        <pitch>
          <step>G</step>
          <octave>3</octave>
        </pitch>
        <duration>5040</duration>
        <type>eighth</type>
        <stem>down</stem>
        <beam number="1">end</beam>
      </note>
    </measure>
    
    <measure number="11" width="209.56">
      <note default-x="29.62" default-y="-690">
        <pitch>
          <step>F</step>
          <octave>3</octave>
        </pitch>
        <duration>5040</duration>
        <type>eighth</type>
        <stem>down</stem>
        <beam number="1">begin</beam>
      </note>
      <note default-x="46.08" default-y="-695">
        <pitch>
          <step>E</step>
          <octave>3</octave>
        </pitch>
        <duration>5040</duration>
        <type>eighth</type>
        <stem>down</stem>
        <beam number="1">continue</beam>
      </note>
      <note default-x="75.31" default-y="-700">
        <pitch>
          <step>D</step>
          <octave>3</octave>
        </pitch>
        <duration>5040</duration>
        <type>eighth</type>
        <stem>down</stem>
        <beam number="1">continue</beam>
      </note>
      <note default-x="91.77" default-y="-705">
        <pitch>
          <step>C</step>
          <octave>3</octave>
        </pitch>
        <duration>5040</duration>
        <type>eighth</type>
        <stem>down</stem>
        <beam number="1">end</beam>
      </note>
      <note default-x="110.92" default-y="-710">
        <pitch>
          <step>B</step>
          <alter>-1</alter>
          <octave>2</octave>
        </pitch>
        <duration>5040</duration>
        <type>eighth</type>
        <stem>up</stem>
        <beam number="1">begin</beam>
      </note>
      <note default-x="136.2" default-y="-720">
        <pitch>
          <step>G</step>
          <octave>2</octave>
        </pitch>
        <duration>5040</duration>
        <type>eighth</type>
        <stem>up</stem>
        <beam number="1">end</beam>
      </note>
      <note default-x="152.66" default-y="-705">
        <pitch>
          <step>C</step>
          <octave>3</octave>
        </pitch>
        <duration>10080</duration>
        <type>quarter</type>
        <stem>up</stem>
      </note>
    </measure>
    
    <measure number="12" width="178.38">
      <note default-x="23.66" default-y="-725">
        <pitch>
          <step>F</step>
          <octave>2</octave>
        </pitch>
        <duration>20160</duration>
        <type>half</type>
        <stem>up</stem>
        <notations>
          <fermata type="upright" />
        </notations>
      </note>
      <note default-x="92.41" default-y="-735">
        <pitch>
          <step>D</step>
          <octave>2</octave>
        </pitch>
        <duration>5040</duration>
        <type>eighth</type>
        <stem>up</stem>
        <beam number="1">begin</beam>
      </note>
      <note default-x="108.72" default-y="-725">
        <pitch>
          <step>F</step>
          <octave>2</octave>
        </pitch>
        <duration>5040</duration>
        <type>eighth</type>
        <stem>up</stem>
        <beam number="1">end</beam>
      </note>
      <note default-x="137.31" default-y="-720">
        <pitch>
          <step>G</step>
          <octave>2</octave>
        </pitch>
        <duration>5040</duration>
        <type>eighth</type>
        <stem>up</stem>
        <beam number="1">begin</beam>
      </note>
      <note default-x="153.61" default-y="-715">
        <pitch>
          <step>A</step>
          <octave>2</octave>
        </pitch>
        <duration>5040</duration>
        <type>eighth</type>
        <stem>up</stem>
        <beam number="1">end</beam>
      </note>
    </measure>
    
    <measure number="13" width="198.24">
      <note default-x="25.59" default-y="-710">
        <pitch>
          <step>B</step>
          <alter>-1</alter>
          <octave>2</octave>
        </pitch>
        <duration>10080</duration>
        <type>quarter</type>
        <stem>up</stem>
      </note>
      <note default-x="76.16" default-y="-705">
        <pitch>
          <step>C</step>
          <octave>3</octave>
        </pitch>
        <duration>10080</duration>
        <type>quarter</type>
        <stem>up</stem>
      </note>
      <note default-x="123.49" default-y="-700">
        <pitch>
          <step>D</step>
          <octave>3</octave>
        </pitch>
        <duration>5040</duration>
        <type>eighth</type>
        <stem>down</stem>
        <beam number="1">begin</beam>
      </note>
      <note default-x="140.15" default-y="-695">
        <pitch>
          <step>E</step>
          <octave>3</octave>
        </pitch>
        <duration>5040</duration>
        <type>eighth</type>
        <stem>down</stem>
        <beam number="1">continue</beam>
      </note>
      <note default-x="156.81" default-y="-690">
        <pitch>
          <step>F</step>
          <octave>3</octave>
        </pitch>
        <duration>5040</duration>
        <type>eighth</type>
        <stem>down</stem>
        <beam number="1">continue</beam>
      </note>
      <note default-x="173.47" default-y="-715">
        <pitch>
          <step>A</step>
          <octave>2</octave>
        </pitch>
        <duration>5040</duration>
        <type>eighth</type>
        <stem>down</stem>
        <beam number="1">end</beam>
      </note>
    </measure>
    
    <measure number="14" width="143.1">
      <note default-x="16.85" default-y="-710">
        <pitch>
          <step>B</step>
          <alter>-1</alter>
          <octave>2</octave>
        </pitch>
        <duration>5040</duration>
        <type>eighth</type>
        <stem>up</stem>
        <beam number="1">begin</beam>
      </note>
      <note default-x="35.92" default-y="-720">
        <pitch>
          <step>G</step>
          <octave>2</octave>
        </pitch>
        <duration>5040</duration>
        <type>eighth</type>
        <stem>up</stem>
        <beam number="1">end</beam>
      </note>
      <note default-x="67.25" default-y="-705">
        <pitch>
          <step>C</step>
          <octave>3</octave>
        </pitch>
        <duration>10080</duration>
        <type>quarter</type>
        <stem>up</stem>
      </note>
      <note default-x="93.46" default-y="-725">
        <pitch>
          <step>F</step>
          <octave>2</octave>
        </pitch>
        <duration>10080</duration>
        <type>quarter</type>
        <stem>up</stem>
        <notations>
          <fermata type="upright" />
        </notations>
      </note>
      <barline location="right">
        <bar-style>light-heavy</bar-style>
      </barline>
    </measure>
  </part>
</score-partwise>