<?xml version='1.0' encoding='utf-8'?>
<score-partwise version="3.1">
  <work><work-title>183. Nun freut euch, lieben Christen, g’mein</work-title></work><movement-title>183. Nun freut euch, lieben Christen, g’mein</movement-title>
  <identification>
    <creator type="composer" />
    <encoding>
      <encoding-date>2025-11-24</encoding-date>
      <software>music21 v.8.3.0</software>
      <software>MuseScore 2.1.0</software>
      <supports attribute="new-system" element="print" type="yes" value="yes" />
      <supports attribute="new-page" element="print" type="yes" value="yes" />
    </encoding>
  </identification>
  <defaults>
    <scaling>
      <millimeters>6.4</millimeters>
      <tenths>40</tenths>
    </scaling>
    <page-layout>
      <page-height>1856.25</page-height>
      <page-width>1312.5</page-width>
      <page-margins>
        <left-margin>31.25</left-margin>
        <right-margin>31.25</right-margin>
        <top-margin>62.5</top-margin>
        <bottom-margin>125</bottom-margin>
      </page-margins>
    </page-layout>
    <word-font font-family="Times New Roman" font-size="8" />
    <lyric-font font-family="Times New Roman" font-size="12" />
  </defaults>
  <credit page="1">
    <credit-words default-x="1250" default-y="1689" font-family="Helvetica" font-size="8" justify="right" valign="bottom" xml:space="preserve" />
  </credit>
  <credit page="1">
    <credit-words default-x="656" default-y="1793" font-family="Helvetica" font-size="12" justify="center" valign="top" />
  </credit>
  <part-list>
    <part-group number="1" type="start">
      <group-symbol>bracket</group-symbol>
      <group-barline>yes</group-barline>
    </part-group>
    <score-part id="P4">
      <part-name>Bass</part-name>
      <part-abbreviation>B.</part-abbreviation>
    </score-part>
    <part-group number="1" type="stop" />
  </part-list>
  
  <part id="P4">
    
    <measure number="0" width="155.22">
      <print>
        <staff-layout number="1">
          <staff-distance>130</staff-distance>
        </staff-layout>
      </print>
      <attributes>
        <divisions>10080</divisions>
        <key>
          <fifths>1</fifths>
          <mode>major</mode>
        </key>
        <time symbol="common">
          <beats>4</beats>
          <beat-type>4</beat-type>
        </time>
        <clef>
          <sign>F</sign>
          <line>4</line>
        </clef>
        <staff-details print-object="yes" />
      </attributes>
      <note default-x="103.87" default-y="-550">
        <pitch>
          <step>G</step>
          <octave>2</octave>
        </pitch>
        <duration>5040</duration>
        <type>eighth</type>
        <stem>up</stem>
        <beam number="1">begin</beam>
      </note>
      <note default-x="128.74" default-y="-545">
        <pitch>
          <step>A</step>
          <octave>2</octave>
        </pitch>
        <duration>5040</duration>
        <type>eighth</type>
        <stem>up</stem>
        <beam number="1">end</beam>
      </note>
    </measure>
    
    <measure number="1" width="258.12">
      <note default-x="28.28" default-y="-540">
        <pitch>
          <step>B</step>
          <octave>2</octave>
        </pitch>
        <duration>5040</duration>
        <type>eighth</type>
        <stem>up</stem>
        <beam number="1">begin</beam>
      </note>
      <note default-x="55.69" default-y="-535">
        <pitch>
          <step>C</step>
          <octave>3</octave>
        </pitch>
        <duration>5040</duration>
        <type>eighth</type>
        <stem>up</stem>
        <beam number="1">continue</beam>
      </note>
      <note default-x="89.36" default-y="-530">
        <pitch>
          <step>D</step>
          <octave>3</octave>
        </pitch>
        <duration>5040</duration>
        <type>eighth</type>
        <stem>up</stem>
        <beam number="1">continue</beam>
      </note>
      <note default-x="116.78" default-y="-535">
        <pitch>
          <step>C</step>
          <octave>3</octave>
        </pitch>
        <duration>5040</duration>
        <type>eighth</type>
        <stem>up</stem>
        <beam number="1">end</beam>
      </note>
      <note default-x="152.96" default-y="-540">
        <pitch>
          <step>B</step>
          <octave>2</octave>
        </pitch>
        <duration>10080</duration>
        <type>quarter</type>
        <stem>up</stem>
      </note>
      <note default-x="196.83" default-y="-545">
        <pitch>
          <step>A</step>
          <octave>2</octave>
        </pitch>
        <duration>10080</duration>
        <type>quarter</type>
        <stem>up</stem>
      </note>
    </measure>
    
    <measure number="2" width="292.06">
      <note default-x="26.95" default-y="-550">
        <pitch>
          <step>G</step>
          <octave>2</octave>
        </pitch>
        <duration>5040</duration>
        <type>eighth</type>
        <stem>up</stem>
        <beam number="1">begin</beam>
      </note>
      <note default-x="56.77" default-y="-540">
        <pitch>
          <step>B</step>
          <octave>2</octave>
        </pitch>
        <duration>5040</duration>
        <type>eighth</type>
        <stem>up</stem>
        <beam number="1">end</beam>
      </note>
      <note default-x="86.59" default-y="-530">
        <pitch>
          <step>D</step>
          <octave>3</octave>
        </pitch>
        <duration>10080</duration>
        <type>quarter</type>
        <stem>down</stem>
      </note>
      <note default-x="169.46" default-y="-550">
        <pitch>
          <step>G</step>
          <octave>2</octave>
        </pitch>
        <duration>10080</duration>
        <type>quarter</type>
        <stem>up</stem>
        <notations>
          <fermata type="upright" />
        </notations>
      </note>
      <note default-x="227.56" default-y="-525">
        <pitch>
          <step>E</step>
          <octave>3</octave>
        </pitch>
        <duration>10080</duration>
        <type>quarter</type>
        <stem>down</stem>
      </note>
    </measure>
    
    <measure number="3" width="283.02">
      <note default-x="26.95" default-y="-530">
        <pitch>
          <step>D</step>
          <octave>3</octave>
        </pitch>
        <duration>10080</duration>
        <type>quarter</type>
        <stem>down</stem>
      </note>
      <note default-x="87.13" default-y="-545">
        <pitch>
          <step>A</step>
          <octave>2</octave>
        </pitch>
        <duration>10080</duration>
        <type>quarter</type>
        <stem>up</stem>
      </note>
      <note default-x="147.3" default-y="-540">
        <pitch>
          <step>B</step>
          <octave>2</octave>
        </pitch>
        <duration>5040</duration>
        <type>eighth</type>
        <stem>up</stem>
        <beam number="1">begin</beam>
      </note>
      <note default-x="176.4" default-y="-535">
        <pitch>
          <step>C</step>
          <octave>3</octave>
        </pitch>
        <duration>5040</duration>
        <type>eighth</type>
        <stem>up</stem>
        <beam number="1">end</beam>
      </note>
      <note default-x="205.49" default-y="-530">
        <pitch>
          <step>D</step>
          <octave>3</octave>
        </pitch>
        <duration>10080</duration>
        <type>quarter</type>
        <stem>down</stem>
      </note>
    </measure>
    
    <measure number="4" width="193.67">
      <note default-x="14.2" default-y="-535">
        <pitch>
          <step>C</step>
          <octave>3</octave>
        </pitch>
        <duration>5040</duration>
        <type>eighth</type>
        <stem>up</stem>
        <beam number="1">begin</beam>
      </note>
      <note default-x="44.4" default-y="-540">
        <pitch>
          <step>B</step>
          <octave>2</octave>
        </pitch>
        <duration>5040</duration>
        <type>eighth</type>
        <stem>up</stem>
        <beam number="1">end</beam>
      </note>
      <note default-x="77.46" default-y="-545">
        <pitch>
          <step>A</step>
          <octave>2</octave>
        </pitch>
        <duration>10080</duration>
        <type>quarter</type>
        <stem>up</stem>
      </note>
      <note default-x="125.77" default-y="-550">
        <pitch>
          <step>G</step>
          <octave>2</octave>
        </pitch>
        <duration>10080</duration>
        <type>quarter</type>
        <stem>up</stem>
        <notations>
          <fermata type="upright" />
        </notations>
      </note>
      <barline location="right">
        <repeat direction="backward" />
      </barline>
    </measure>
    
    <measure number="4a" width="139.32">
      <print new-system="yes">
        <staff-layout number="1">
          <staff-distance>130</staff-distance>
        </staff-layout>
      </print>
      <attributes>
        <staff-details print-object="yes" />
      </attributes>
      <note default-x="79.51" default-y="-515">
        <pitch>
          <step>G</step>
          <octave>3</octave>
        </pitch>
        <duration>5040</duration>
        <type>eighth</type>
        <stem>down</stem>
        <beam number="1">begin</beam>
      </note>
      <note default-x="108.62" default-y="-520">
        <pitch>
          <step>F</step>
          <alter>1</alter>
          <octave>3</octave>
        </pitch>
        <duration>5040</duration>
        <type>eighth</type>
        <stem>down</stem>
        <beam number="1">end</beam>
      </note>
    </measure>
    
    <measure number="5" width="285.29">
      <note default-x="26.95" default-y="-525">
        <pitch>
          <step>E</step>
          <octave>3</octave>
        </pitch>
        <duration>5040</duration>
        <type>eighth</type>
        <stem>down</stem>
        <beam number="1">begin</beam>
      </note>
      <note default-x="57.02" default-y="-520">
        <pitch>
          <step>F</step>
          <alter>1</alter>
          <octave>3</octave>
        </pitch>
        <duration>5040</duration>
        <type>eighth</type>
        <stem>down</stem>
        <beam number="1">end</beam>
      </note>
      <note default-x="87.1" default-y="-515">
        <pitch>
          <step>G</step>
          <octave>3</octave>
        </pitch>
        <duration>10080</duration>
        <tie type="start" />
        <type>quarter</type>
        <stem>down</stem>
        <notations>
          <tied type="start" />
        </notations>
      </note>
      <note default-x="155.88" default-y="-515">
        <pitch>
          <step>G</step>
          <octave>3</octave>
        </pitch>
        <duration>5040</duration>
        <tie type="stop" />
        <type>eighth</type>
        <stem>down</stem>
        <beam number="1">begin</beam>
        <notations>
          <tied type="stop" />
        </notations>
      </note>
      <note default-x="185.95" default-y="-510">
        <pitch>
          <step>A</step>
          <octave>3</octave>
        </pitch>
        <duration>2520</duration>
        <type>16th</type>
        <stem>down</stem>
        <beam number="1">continue</beam>
        <beam number="2">begin</beam>
      </note>
      <note default-x="204.75" default-y="-515">
        <pitch>
          <step>G</step>
          <octave>3</octave>
        </pitch>
        <duration>2520</duration>
        <type>16th</type>
        <stem>down</stem>
        <beam number="1">end</beam>
        <beam number="2">end</beam>
      </note>
      <note default-x="223.55" default-y="-520">
        <pitch>
          <step>F</step>
          <alter>1</alter>
          <octave>3</octave>
        </pitch>
        <duration>5040</duration>
        <type>eighth</type>
        <stem>down</stem>
        <beam number="1">begin</beam>
      </note>
      <note default-x="253.62" default-y="-505">
        <pitch>
          <step>B</step>
          <octave>3</octave>
        </pitch>
        <duration>5040</duration>
        <type>eighth</type>
        <stem>down</stem>
        <beam number="1">end</beam>
      </note>
    </measure>
    
    <measure number="6" width="278">
      <note default-x="25.61" default-y="-515">
        <pitch>
          <step>G</step>
          <octave>3</octave>
        </pitch>
        <duration>10080</duration>
        <type>quarter</type>
        <stem>down</stem>
      </note>
      <note default-x="97.26" default-y="-510">
        <pitch>
          <step>A</step>
          <octave>3</octave>
        </pitch>
        <duration>5040</duration>
        <type>eighth</type>
        <stem>down</stem>
        <beam number="1">begin</beam>
      </note>
      <note default-x="133.09" default-y="-545">
        <pitch>
          <step>A</step>
          <octave>2</octave>
        </pitch>
        <duration>5040</duration>
        <type>eighth</type>
        <stem>down</stem>
        <beam number="1">end</beam>
      </note>
      <note default-x="177.88" default-y="-530">
        <pitch>
          <step>D</step>
          <octave>3</octave>
        </pitch>
        <duration>10080</duration>
        <type>quarter</type>
        <stem>down</stem>
        <notations>
          <fermata type="upright" />
        </notations>
      </note>
      <note default-x="227.14" default-y="-540">
        <pitch>
          <step>B</step>
          <octave>2</octave>
        </pitch>
        <duration>10080</duration>
        <type>quarter</type>
        <stem>up</stem>
      </note>
    </measure>
    
    <measure number="7" width="294.58">
      <note default-x="18.85" default-y="-535">
        <pitch>
          <step>C</step>
          <octave>3</octave>
        </pitch>
        <duration>5040</duration>
        <type>eighth</type>
        <stem>up</stem>
        <beam number="1">begin</beam>
      </note>
      <note default-x="52.08" default-y="-530">
        <pitch>
          <step>D</step>
          <octave>3</octave>
        </pitch>
        <duration>5040</duration>
        <type>eighth</type>
        <stem>up</stem>
        <beam number="1">end</beam>
      </note>
      <note default-x="93.62" default-y="-525">
        <pitch>
          <step>E</step>
          <octave>3</octave>
        </pitch>
        <duration>10080</duration>
        <type>quarter</type>
        <stem>down</stem>
      </note>
      <note default-x="160.07" default-y="-520">
        <pitch>
          <step>F</step>
          <alter>1</alter>
          <octave>3</octave>
        </pitch>
        <duration>5040</duration>
        <type>eighth</type>
        <stem>down</stem>
        <beam number="1">begin</beam>
      </note>
      <note default-x="193.3" default-y="-530">
        <pitch>
          <step>D</step>
          <octave>3</octave>
        </pitch>
        <duration>5040</duration>
        <type>eighth</type>
        <stem>down</stem>
        <beam number="1">continue</beam>
      </note>
      <note default-x="226.53" default-y="-525">
        <pitch>
          <step>E</step>
          <octave>3</octave>
        </pitch>
        <duration>5040</duration>
        <type>eighth</type>
        <stem>down</stem>
        <beam number="1">continue</beam>
      </note>
      <note default-x="259.75" default-y="-520">
        <pitch>
          <step>F</step>
          <alter>1</alter>
          <octave>3</octave>
        </pitch>
        <duration>5040</duration>
        <type>eighth</type>
        <stem>down</stem>
        <beam number="1">end</beam>
      </note>
    </measure>
    
    <measure number="8" width="221.32">
      <note default-x="28.5" default-y="-515">
        <pitch>
          <step>G</step>
          <octave>3</octave>
        </pitch>
        <duration>10080</duration>
        <type>quarter</type>
        <stem>down</stem>
      </note>
      <note default-x="106.62" default-y="-530">
        <pitch>
          <step>D</step>
          <octave>3</octave>
        </pitch>
        <duration>10080</duration>
        <type>quarter</type>
        <stem>down</stem>
      </note>
      <note default-x="173.64" default-y="-525">
        <pitch>
          <step>E</step>
          <octave>3</octave>
        </pitch>
        <duration>10080</duration>
        <type>quarter</type>
        <stem>down</stem>
        <notations>
          <fermata type="upright" />
        </notations>
      </note>
    </measure>
    
    <measure number="8a" width="204.87">
      <print new-page="yes">
        <staff-layout number="1">
          <staff-distance>130</staff-distance>
        </staff-layout>
      </print>
      <attributes>
        <staff-details print-object="yes" />
      </attributes>
      <note default-x="76.15" default-y="-525">
        <pitch>
          <step>E</step>
          <octave>3</octave>
        </pitch>
        <duration>10080</duration>
        <type>quarter</type>
        <stem>down</stem>
      </note>
    </measure>
    
    <measure number="9" width="576.24">
      <note default-x="31.41" default-y="-520">
        <pitch>
          <step>F</step>
          <alter>1</alter>
          <octave>3</octave>
        </pitch>
        <duration>10080</duration>
        <type>quarter</type>
        <stem>down</stem>
      </note>
      <note default-x="179.57" default-y="-515">
        <pitch>
          <step>G</step>
          <octave>3</octave>
        </pitch>
        <duration>5040</duration>
        <type>eighth</type>
        <stem>down</stem>
        <beam number="1">begin</beam>
      </note>
      <note default-x="245.41" default-y="-520">
        <pitch>
          <step>F</step>
          <alter>1</alter>
          <octave>3</octave>
        </pitch>
        <duration>5040</duration>
        <type>eighth</type>
        <stem>down</stem>
        <beam number="1">end</beam>
      </note>
      <note default-x="311.26" default-y="-525">
        <pitch>
          <step>E</step>
          <octave>3</octave>
        </pitch>
        <duration>10080</duration>
        <type>quarter</type>
        <stem>down</stem>
      </note>
      <note default-x="442.95" default-y="-545">
        <pitch>
          <step>A</step>
          <octave>2</octave>
        </pitch>
        <duration>10080</duration>
        <type>quarter</type>
        <stem>up</stem>
      </note>
    </measure>
    
    <measure number="10" width="437.39">
      <note default-x="14.2" default-y="-540">
        <pitch>
          <step>B</step>
          <octave>2</octave>
        </pitch>
        <duration>5040</duration>
        <type>eighth</type>
        <stem>up</stem>
        <beam number="1">begin</beam>
      </note>
      <note default-x="87.55" default-y="-535">
        <pitch>
          <step>C</step>
          <octave>3</octave>
        </pitch>
        <duration>5040</duration>
        <type>eighth</type>
        <stem>up</stem>
        <beam number="1">end</beam>
      </note>
      <note default-x="160.9" default-y="-530">
        <pitch>
          <step>D</step>
          <octave>3</octave>
        </pitch>
        <duration>10080</duration>
        <type>quarter</type>
        <stem>down</stem>
      </note>
      <note default-x="325.94" default-y="-550">
        <pitch>
          <step>G</step>
          <octave>2</octave>
        </pitch>
        <duration>10080</duration>
        <type>quarter</type>
        <stem>up</stem>
        <notations>
          <fermata type="upright" />
        </notations>
      </note>
      <barline location="right">
        <bar-style>light-heavy</bar-style>
      </barline>
    </measure>
  </part>
</score-partwise>